<?xml version="1.0" encoding="UTF-8" standalone="no"?>
<!DOCTYPE svg PUBLIC "-//W3C//DTD SVG 1.1//EN" "http://www.w3.org/Graphics/SVG/1.1/DTD/svg11.dtd">
<svg width="100%" height="100%" viewBox="0 0 192 192" version="1.1" xmlns="http://www.w3.org/2000/svg" xmlns:xlink="http://www.w3.org/1999/xlink" xml:space="preserve" xmlns:serif="http://www.serif.com/" style="fill-rule:evenodd;clip-rule:evenodd;stroke-linecap:round;stroke-linejoin:round;stroke-miterlimit:1.5;">
    <g transform="matrix(1.02198,0,0,1.02198,-4.15385,-7.21978)">
        <circle cx="98" cy="101" r="91" style="fill:rgb(253,253,253);stroke:white;stroke-width:0.98px;"/>
    </g>
    <g transform="matrix(0.698035,0,0,0.698035,45.8722,24.013)">
        <g id="Group.svg">
            <g>
                <g>
                    <path d="M17.403,116.652C17.403,116.489 17.403,116.326 17.24,116.326C14.634,116.489 7.306,115.187 4.212,99.723C3.398,96.142 3.235,93.213 3.561,90.771C2.91,88.655 2.421,86.539 1.933,84.26L1.933,188.434C14.96,184.528 26.522,180.784 28.313,179.644C33.036,176.552 38.247,174.599 38.247,161.414L38.247,146.602C28.965,140.091 21.637,129.836 17.403,116.652Z" style="fill:rgb(96,53,21);fill-rule:nonzero;"/>
                    <path d="M38.572,143.021C46.226,148.881 55.345,152.136 65.767,152.136C80.912,152.136 93.451,145.462 102.244,133.417C102.733,132.441 102.896,131.952 102.896,131.952C102.896,131.952 111.364,102.328 91.497,80.191C89.38,77.912 87.426,75.959 85.472,74.005L80.749,74.005C79.772,74.005 79.121,73.192 79.121,72.378C79.121,71.401 79.935,70.75 80.749,70.75L81.563,70.75C65.605,58.054 51.111,56.426 38.735,36.242C36.293,45.032 33.036,53.984 29.616,62.774C24.568,75.796 19.52,88.004 16.751,97.607C17.403,104.118 18.706,110.304 20.497,115.838C24.242,127.557 30.593,136.835 38.572,143.021ZM35.316,92.236C35.153,87.19 37.27,84.586 41.341,84.586C45.412,84.423 47.529,87.19 47.366,92.236C47.529,97.282 45.412,99.886 41.341,99.886C37.433,100.049 35.316,97.282 35.316,92.236ZM90.031,84.748C94.102,84.586 96.219,87.353 96.056,92.399C96.219,97.445 94.102,100.049 90.031,100.049C85.96,100.212 83.843,97.445 84.006,92.399C83.843,87.353 85.96,84.586 90.031,84.748ZM82.54,125.441C83.192,124.628 84.495,124.465 85.309,125.116C86.123,125.767 86.286,127.069 85.634,127.883C85.472,128.209 79.772,135.208 65.767,135.208C64.79,135.208 63.813,135.208 62.999,135.045C51.111,134.231 46.063,128.209 45.9,127.883C45.249,127.069 45.412,125.767 46.226,125.116C47.04,124.465 48.343,124.628 48.995,125.441C49.157,125.604 52.74,129.836 61.533,130.976C62.836,131.138 64.139,131.138 65.767,131.138C77.818,131.138 82.378,125.441 82.54,125.441ZM61.859,117.303L69.676,117.303C72.444,117.303 72.77,118.279 70.653,119.256L69.839,119.582C67.559,120.721 63.976,120.721 61.859,119.582L61.045,119.256C58.765,118.117 59.091,117.303 61.859,117.303ZM34.176,70.75L50.786,70.75C51.763,70.75 52.414,71.564 52.414,72.378C52.414,73.354 51.6,74.005 50.786,74.005L34.176,74.005C33.199,74.005 32.547,73.192 32.547,72.378C32.547,71.401 33.199,70.75 34.176,70.75Z" style="fill:rgb(255,206,161);fill-rule:nonzero;"/>
                    <path d="M65.768,152.136C55.346,152.136 46.226,149.043 38.573,143.021C30.593,136.835 24.242,127.557 20.497,115.675C18.706,110.141 17.566,103.955 16.751,97.445C15.123,103.63 14.472,108.839 15.612,112.094C12.355,110.466 6.981,102.328 3.561,90.608C3.398,93.05 3.561,95.98 4.212,99.561C7.306,115.187 14.634,116.326 17.24,116.163C17.24,116.326 17.24,116.489 17.403,116.489C21.637,129.673 28.965,139.928 38.247,146.439C46.063,151.973 55.508,155.066 65.768,155.066C71.304,155.066 76.515,154.252 81.563,152.462C94.428,147.09 100.453,136.835 102.245,133.092C93.451,145.462 80.749,152.136 65.768,152.136Z" style="fill:rgb(255,186,123);fill-rule:nonzero;"/>
                    <path d="M47.529,92.236C47.692,87.19 45.575,84.586 41.504,84.586C37.433,84.423 35.316,87.19 35.478,92.236C35.316,97.282 37.433,99.886 41.504,99.886C45.412,100.049 47.692,97.282 47.529,92.236Z" style="fill:rgb(68,68,68);fill-rule:nonzero;"/>
                    <path d="M90.031,84.748C85.96,84.586 83.843,87.353 84.006,92.399C83.843,97.445 85.96,100.049 90.031,100.049C94.102,100.212 96.219,97.445 96.057,92.399C96.219,87.353 94.102,84.586 90.031,84.748Z" style="fill:rgb(68,68,68);fill-rule:nonzero;"/>
                    <path d="M69.676,117.303L61.859,117.303C59.091,117.303 58.765,118.279 60.882,119.256L61.696,119.582C63.976,120.721 67.559,120.721 69.676,119.582L70.49,119.256C72.77,118.117 72.281,117.303 69.676,117.303Z" style="fill:rgb(244,144,110);fill-rule:nonzero;"/>
                    <path d="M65.767,135.208C79.772,135.208 85.472,128.209 85.634,127.883C86.286,127.069 86.123,125.767 85.309,125.116C84.495,124.465 83.192,124.628 82.54,125.441C82.54,125.441 77.818,131.138 65.767,131.138C64.302,131.138 62.836,130.976 61.533,130.976C52.74,129.836 49.157,125.604 48.995,125.441C48.343,124.628 47.04,124.465 46.226,125.116C45.412,125.767 45.249,127.069 45.901,127.883C46.063,128.209 50.949,134.231 62.999,135.045C63.813,135.045 64.79,135.208 65.767,135.208Z" style="fill:rgb(239,124,46);fill-rule:nonzero;"/>
                    <path d="M50.786,74.005C51.763,74.005 52.414,73.192 52.414,72.378C52.414,71.401 51.6,70.75 50.786,70.75L41.829,70.75L42.969,74.005L50.786,74.005Z" style="fill:rgb(77,51,0);fill-rule:nonzero;"/>
                    <path d="M32.547,72.378C32.547,73.354 33.362,74.005 34.176,74.005L42.969,74.005L41.829,70.75L34.176,70.75C33.199,70.75 32.547,71.401 32.547,72.378Z" style="fill:rgb(77,51,0);fill-rule:nonzero;"/>
                    <path d="M78.958,72.378C78.958,73.354 79.772,74.005 80.586,74.005L85.309,74.005C84.006,72.866 82.703,71.727 81.4,70.75L80.586,70.75C79.772,70.75 78.958,71.401 78.958,72.378Z" style="fill:rgb(77,51,0);fill-rule:nonzero;"/>
                    <path d="M15.612,112.257C14.472,109.001 15.123,103.793 16.751,97.607C19.357,88.004 24.568,75.796 29.616,62.774C33.036,53.984 36.293,45.032 38.735,36.242C51.112,56.263 65.605,58.054 81.563,70.75C82.866,71.727 84.169,72.866 85.472,74.005C87.426,75.796 89.543,77.912 91.497,80.191C111.364,102.328 102.896,131.952 102.896,131.952C102.896,131.952 102.733,132.441 102.245,133.417C100.453,137.161 94.428,147.416 81.563,152.787C80.912,152.95 80.423,153.275 79.772,153.438C79.772,153.438 83.029,174.436 84.006,177.366C88.729,191.038 94.428,194.619 106.153,199.828C118.04,205.037 142.141,200.479 142.141,200.479C136.442,188.434 140.839,86.864 136.767,62.286C132.534,37.545 113.318,10.362 92.962,2.874C72.444,-4.451 48.018,5.967 48.018,5.967C48.018,5.967 25.708,1.409 7.795,36.08C-0.836,52.845 -0.999,70.262 1.933,84.423C2.421,86.702 2.91,88.818 3.561,90.934C6.981,102.491 12.518,110.629 15.612,112.257Z" style="fill:rgb(112,66,27);fill-rule:nonzero;"/>
                </g>
            </g>
        </g>
    </g>
</svg>
