<?xml version="1.0" encoding="UTF-8" standalone="no"?>
<!DOCTYPE svg PUBLIC "-//W3C//DTD SVG 1.1//EN" "http://www.w3.org/Graphics/SVG/1.1/DTD/svg11.dtd">
<svg width="100%" height="100%" viewBox="0 0 2120 2500" version="1.1" xmlns="http://www.w3.org/2000/svg" xmlns:xlink="http://www.w3.org/1999/xlink" xml:space="preserve" xmlns:serif="http://www.serif.com/" style="fill-rule:evenodd;clip-rule:evenodd;stroke-linejoin:round;stroke-miterlimit:2;">
    <path d="M1755.4,2229.69L1755.4,1621.6L2025.51,1621.6L2025.51,2499.93L0,2499.93L0,1621.6L270.109,1621.6L270.109,2229.69L1755.4,2229.69Z" style="fill:rgb(188,187,187);fill-rule:nonzero;"/>
    <path d="M1552.91,1756.72L1606.9,1553.98L519.844,1331.12L472.597,1553.98L1552.91,1756.72ZM621.213,1027.01L1633.9,1499.99L1728.4,1297.25L715.708,824.4L621.213,1027.01ZM904.697,527.043L1755.4,1243.25L1897.26,1074.38L1039.81,358.178L897.947,527.043L904.697,527.043ZM1451.66,0.074L1269.3,135.191L1937.76,1033.76L2120,898.646L1451.66,0.074ZM472.597,2026.95L1552.91,2026.95L1552.91,1824.34L472.597,1824.34L472.597,2026.95Z" style="fill:rgb(244,128,36);fill-rule:nonzero;"/>
</svg>
