<?xml version="1.0" encoding="UTF-8" standalone="no"?>
<!DOCTYPE svg PUBLIC "-//W3C//DTD SVG 1.1//EN" "http://www.w3.org/Graphics/SVG/1.1/DTD/svg11.dtd">
<svg width="100%" height="100%" viewBox="0 0 700 590" version="1.1" xmlns="http://www.w3.org/2000/svg" xmlns:xlink="http://www.w3.org/1999/xlink" xml:space="preserve" xmlns:serif="http://www.serif.com/" style="fill-rule:evenodd;clip-rule:evenodd;stroke-linejoin:round;stroke-miterlimit:2;">
    <g>
        <path d="M347.02,10.578C430.989,10.578 499.75,79.34 499.75,163.308C499.75,247.937 430.988,316.038 347.02,316.038C262.391,316.038 193.63,247.94 193.63,163.308C193.63,79.339 262.392,10.578 347.02,10.578ZM248.508,341.818L451.488,341.818C543.39,341.818 618.098,416.529 618.098,508.428L618.098,549.42L584.379,549.42L584.379,508.428C584.379,435.701 524.875,375.538 451.489,375.538L248.509,375.538C175.122,375.538 115.619,435.702 115.619,508.428L115.619,549.42L81.24,549.42L81.24,508.428C81.24,416.526 156.611,341.818 248.51,341.818L248.508,341.818ZM347.02,44.298C280.903,44.298 228.01,97.853 228.01,163.308C228.01,229.425 280.901,282.318 347.02,282.318C412.473,282.318 465.37,229.427 465.37,163.308C465.37,97.855 412.479,44.298 347.02,44.298Z" style="fill:white;fill-rule:nonzero;stroke:white;stroke-width:1px;"/>
    </g>
</svg>
