<?xml version="1.0" encoding="UTF-8" standalone="no"?>
<!DOCTYPE svg PUBLIC "-//W3C//DTD SVG 1.1//EN" "http://www.w3.org/Graphics/SVG/1.1/DTD/svg11.dtd">
<svg width="100%" height="100%" viewBox="0 0 700 592" version="1.1" xmlns="http://www.w3.org/2000/svg" xmlns:xlink="http://www.w3.org/1999/xlink" xml:space="preserve" xmlns:serif="http://www.serif.com/" style="fill-rule:evenodd;clip-rule:evenodd;stroke-linejoin:round;stroke-miterlimit:2;">
    <g>
        <path d="M350,56C226.49,56 126,156.49 126,280C126,403.51 226.49,504 350,504C406.629,504 460.69,482.789 502.23,444.266C507.902,439.012 508.234,430.149 502.976,424.481C497.718,418.813 488.863,418.485 483.191,423.735C446.843,457.442 399.539,476.001 349.991,476.001C241.921,476.001 153.991,388.075 153.991,280.001C153.991,171.927 241.917,84.001 349.991,84.001C458.065,84.001 545.991,171.927 545.991,280.001L545.991,322.001C545.991,345.161 527.151,364.001 503.991,364.001C480.831,364.001 461.991,345.161 461.991,322.001L461.991,182.001C461.991,174.267 455.725,168.001 447.991,168.001C440.257,168.001 433.991,174.267 433.991,182.001L433.991,206.169C413.452,182.829 383.452,168.001 349.991,168.001C288.233,168.001 237.991,218.243 237.991,280.001C237.991,341.759 288.233,392.001 349.991,392.001C386.272,392.001 418.483,374.587 438.964,347.755C449.253,373.634 474.491,392.001 503.991,392.001C542.593,392.001 573.991,360.603 573.991,322.001L573.991,280.001C573.991,156.491 473.501,56.001 349.991,56.001L350,56ZM350,364C303.684,364 266,326.316 266,280C266,233.684 303.684,196 350,196C396.316,196 434,233.684 434,280C434,326.316 396.316,364 350,364Z" style="fill:white;fill-rule:nonzero;"/>
    </g>
</svg>
