<?xml version="1.0" encoding="UTF-8" standalone="no"?>
<!DOCTYPE svg PUBLIC "-//W3C//DTD SVG 1.1//EN" "http://www.w3.org/Graphics/SVG/1.1/DTD/svg11.dtd">
<svg width="100%" height="100%" viewBox="0 0 580 552" version="1.1" xmlns="http://www.w3.org/2000/svg" xmlns:xlink="http://www.w3.org/1999/xlink" xml:space="preserve" xmlns:serif="http://www.serif.com/" style="fill-rule:evenodd;clip-rule:evenodd;stroke-linejoin:round;stroke-miterlimit:2;">
    <g transform="matrix(1,0,0,1,-68,-24)">
        <path d="M350,78.402C346.535,78.539 342.418,79.781 339.676,81.902L166.076,216.302C162.049,219.439 159.588,224.497 159.599,229.603L159.599,464.803C159.599,473.6 167.603,481.604 176.4,481.604L294,481.604C302.797,481.604 310.801,473.6 310.801,464.803L310.801,386.405C310.801,364.397 327.992,347.206 350,347.206C372.008,347.206 389.199,364.397 389.199,386.405L389.199,464.803C389.199,473.6 397.203,481.604 406,481.604L523.6,481.604C532.397,481.604 540.401,473.6 540.401,464.803L540.401,229.603C540.401,224.498 537.956,219.443 533.925,216.302L360.325,81.902C357.212,79.492 355.598,78.707 350.001,78.402L350,78.402ZM350,116.379L506.8,237.649L506.8,447.999L422.8,447.999L422.8,386.397C422.8,346.358 390.042,313.596 349.999,313.596C309.96,313.596 277.198,346.358 277.198,386.397L277.198,447.999L193.198,447.999L193.198,237.649L350,116.379Z" style="fill:white;fill-rule:nonzero;stroke:white;stroke-width:1px;"/>
    </g>
</svg>
