<?xml version="1.0" encoding="UTF-8" standalone="no"?>
<!DOCTYPE svg PUBLIC "-//W3C//DTD SVG 1.1//EN" "http://www.w3.org/Graphics/SVG/1.1/DTD/svg11.dtd">
<svg width="100%" height="100%" viewBox="0 0 700 601" version="1.1" xmlns="http://www.w3.org/2000/svg" xmlns:xlink="http://www.w3.org/1999/xlink" xml:space="preserve" xmlns:serif="http://www.serif.com/" style="fill-rule:evenodd;clip-rule:evenodd;stroke-linejoin:round;stroke-miterlimit:2;">
    <g>
        <path d="M121.97,303.48C115.951,303.48 111.072,298.597 111.072,292.585C111.072,286.566 115.955,281.687 121.97,281.687L186.361,281.687C192.373,281.687 197.256,286.57 197.256,292.585C197.256,298.597 192.373,303.48 186.361,303.48L121.97,303.48Z" style="fill:white;fill-rule:nonzero;"/>
        <path d="M181.05,139.05C176.796,134.792 176.796,127.894 181.05,123.632C185.304,119.378 192.202,119.378 196.456,123.632L241.995,169.179C246.249,173.433 246.249,180.331 241.995,184.585C237.737,188.843 230.839,188.843 226.585,184.585L181.05,139.05Z" style="fill:white;fill-rule:nonzero;"/>
        <path d="M339.14,64.562C339.14,58.57 344.003,53.707 349.995,53.707C355.995,53.707 360.854,58.57 360.854,64.562L360.862,128.953C360.862,134.953 355.999,139.812 350.007,139.812C344.007,139.812 339.148,134.949 339.148,128.953L339.14,64.562Z" style="fill:white;fill-rule:nonzero;"/>
        <path d="M503.54,123.63C507.794,119.376 514.696,119.376 518.95,123.63C523.204,127.888 523.204,134.786 518.95,139.048L473.419,184.579C469.153,188.837 462.255,188.837 458.001,184.579C453.747,180.325 453.747,173.427 458.001,169.173L503.54,123.626L503.54,123.63Z" style="fill:white;fill-rule:nonzero;"/>
        <path d="M578.03,281.69C584.05,281.69 588.928,286.573 588.928,292.588C588.928,298.6 584.045,303.483 578.03,303.483L513.655,303.483C507.635,303.483 502.757,298.6 502.757,292.588C502.757,286.569 507.64,281.69 513.655,281.69L578.03,281.69Z" style="fill:white;fill-rule:nonzero;"/>
        <path d="M393.22,408.79L306.79,408.79C305.11,402.864 302.704,397.181 299.751,391.747C294.114,381.356 286.442,371.864 278.177,363.352C269.286,354.204 262.13,343.332 257.243,331.278C252.559,319.723 249.973,307.063 249.973,293.762C249.973,266.133 261.172,241.125 279.274,223.024C297.364,204.922 322.372,193.731 350.001,193.731L350.009,171.93L350.009,193.731C377.638,193.731 402.646,204.922 420.743,223.024C438.841,241.126 450.036,266.137 450.036,293.762C450.036,307.063 447.45,319.723 442.767,331.278C437.88,343.329 430.724,354.204 421.841,363.352C413.567,371.864 405.896,381.356 400.259,391.747C397.31,397.185 394.899,402.864 393.22,408.79ZM309.451,430.591L390.56,430.591L390.56,442.279L309.451,442.279L309.451,430.591ZM350.009,464.861L350.79,464.08L385.212,464.08C383.419,467.209 381.216,470.08 378.689,472.607C371.646,479.646 362.029,484.111 351.365,484.466L351.365,484.048L350.947,484.47C350.634,484.482 350.318,484.482 350.009,484.482L350.002,506.283C332.783,506.283 317.201,499.298 305.92,488.021C294.635,476.736 287.65,461.154 287.65,443.943L287.65,427.58C287.65,418.642 284.923,410.103 280.591,402.127C275.954,393.568 269.54,385.658 262.595,378.502C251.736,367.318 243.005,354.084 237.072,339.443C231.338,325.314 228.181,309.892 228.181,293.759C228.181,260.111 241.814,229.654 263.857,207.611C285.904,185.564 316.361,171.927 350.005,171.927C383.646,171.927 414.103,185.564 436.15,207.611C458.197,229.658 471.826,260.115 471.826,293.759C471.826,309.892 468.67,325.314 462.936,339.443C457.002,354.08 448.272,367.314 437.413,378.502C430.467,385.658 424.058,393.568 419.417,402.127C415.085,410.103 412.358,418.643 412.358,427.58L412.358,443.943C412.358,461.154 405.374,476.736 394.088,488.021C382.803,499.298 367.221,506.283 350.006,506.283L350.006,484.482C349.69,484.482 349.369,484.482 349.061,484.47L348.643,484.048L348.643,484.466C337.979,484.111 328.366,479.646 321.319,472.607C318.792,470.08 316.588,467.209 314.795,464.08L349.221,464.08L350.003,464.861L350.009,464.861Z" style="fill:white;"/>
    </g>
</svg>
