<?xml version="1.0" encoding="UTF-8" standalone="no"?>
<!DOCTYPE svg PUBLIC "-//W3C//DTD SVG 1.1//EN" "http://www.w3.org/Graphics/SVG/1.1/DTD/svg11.dtd">
<svg width="100%" height="100%" viewBox="0 0 35 42" version="1.1" xmlns="http://www.w3.org/2000/svg" xmlns:xlink="http://www.w3.org/1999/xlink" xml:space="preserve" xmlns:serif="http://www.serif.com/" style="fill-rule:evenodd;clip-rule:evenodd;stroke-linecap:round;stroke-linejoin:round;stroke-miterlimit:10;">
    <path d="M0.936,41.087L0.936,38.531C0.936,28.944 13.476,34.239 13.476,26.204L13.476,24.196C14.786,24.926 16.096,25.383 17.5,25.383C18.81,25.383 20.214,24.926 21.524,24.196L21.524,26.204C21.524,34.239 34.064,28.944 34.064,38.531L34.064,41.087L0.936,41.087Z" style="fill:none;fill-rule:nonzero;stroke:rgb(68,83,89);stroke-width:2px;"/>
    <path d="M17.5,37.983C21.898,37.983 25.642,35.335 27.139,31.683C24.238,30.861 21.43,30.039 21.43,26.296L21.43,24.287C20.12,25.017 18.81,25.474 17.406,25.474C16.096,25.474 14.692,25.017 13.382,24.287L13.382,26.296C13.382,30.039 10.668,30.861 7.674,31.683C9.358,35.335 13.102,37.983 17.5,37.983Z" style="fill:none;fill-rule:nonzero;stroke:rgb(68,83,89);stroke-width:2px;"/>
    <path d="M13.476,26.296L13.476,24.287C14.786,25.017 16.096,25.474 17.5,25.474C18.81,25.474 20.214,25.017 21.524,24.287L21.524,26.296C21.524,31.135 26.11,31.135 29.666,32.413C30.976,32.504 32.286,32.23 33.503,31.591C34.251,31.226 34.158,30.222 33.409,29.857C31.257,29.035 29.666,27.026 29.666,24.652L29.666,12.783C29.666,6.209 24.238,0.913 17.5,0.913C10.762,0.913 5.334,6.209 5.334,12.783L5.334,24.652C5.334,27.026 3.837,29.035 1.591,29.857C0.842,30.13 0.749,31.135 1.497,31.591C2.714,32.23 4.024,32.413 5.334,32.413C8.984,31.044 13.476,31.044 13.476,26.296Z" style="fill:none;fill-rule:nonzero;stroke:rgb(68,83,89);stroke-width:2px;"/>
    <path d="M27.046,14.517C21.711,14.517 12.634,9.861 12.634,9.861C10.013,9.861 7.861,11.961 7.861,14.517C7.861,20.544 12.727,25.383 17.406,25.383C22.179,25.383 27.046,20.544 27.046,14.517Z" style="fill:none;fill-rule:nonzero;stroke:rgb(68,83,89);stroke-width:2px;"/>
</svg>
