<svg width="40" height="40" viewBox="0 0 40 40" fill="none" xmlns="http://www.w3.org/2000/svg">
<path d="M20.0001 39.2308C30.6154 39.2308 39.2308 30.6154 39.2308 20C39.2308 9.38461 30.6154 0.769226 20.0001 0.769226C9.38467 0.769226 0.769287 9.38461 0.769287 20C0.769287 25.3077 2.92313 30.1538 6.38467 33.6154L0.769287 39.2308H20.0001Z" stroke="#445359" stroke-width="2" stroke-linejoin="round"/>
<path d="M15.2308 24.7692C10.5385 20.0769 8.69231 14.2308 11.0769 11.8461C11.6154 11.3077 12.4615 10.6923 13.1538 10.2308C13.6154 9.92307 14.2308 9.99999 14.5385 10.5385L17.4615 15.1538C17.7692 15.6154 17.6154 16.2308 17.1538 16.4615L15.3846 17.3846C14.9231 17.6923 14.7692 18.3077 15.0769 18.7692C15.8462 19.8461 16.8461 21 17.9231 22C19 23.0769 20.0769 24.0769 21.1538 24.8461C21.6154 25.1538 22.2308 25 22.5385 24.5385L23.5385 22.8461C23.8462 22.3846 24.4615 22.2308 24.8461 22.5385L29.4615 25.4615C29.9231 25.7692 30.0769 26.3846 29.7692 26.8462C29.3077 27.5385 28.6154 28.3846 28.1538 28.9231C25.7692 31.3846 19.9231 29.5385 15.2308 24.7692Z" stroke="#445359" stroke-width="2" stroke-linejoin="round"/>
</svg>
