<?xml version="1.0" encoding="UTF-8" standalone="no"?>
<!DOCTYPE svg PUBLIC "-//W3C//DTD SVG 1.1//EN" "http://www.w3.org/Graphics/SVG/1.1/DTD/svg11.dtd">
<svg width="100%" height="100%" viewBox="0 0 326 164" version="1.1" xmlns="http://www.w3.org/2000/svg" xmlns:xlink="http://www.w3.org/1999/xlink" xml:space="preserve" xmlns:serif="http://www.serif.com/" style="fill-rule:evenodd;clip-rule:evenodd;stroke-linejoin:round;stroke-miterlimit:2;">
    <g transform="matrix(1,0,0,1,-192,-202)">
        <path d="M268.41,311.98C259.93,311.98 251.797,308.609 245.801,302.613C239.805,296.617 236.438,288.484 236.438,280.004C236.438,271.524 239.805,263.391 245.801,257.395C251.797,251.399 259.93,248.028 268.41,248.028C276.89,248.028 285.027,251.399 291.023,257.395C297.019,263.391 300.386,271.524 300.386,280.004C300.386,288.484 297.019,296.617 291.023,302.613C285.027,308.609 276.89,311.98 268.41,311.98ZM268.41,259.226C262.902,259.226 257.617,261.417 253.722,265.312C249.824,269.21 247.636,274.492 247.636,280.003C247.636,285.514 249.824,290.796 253.722,294.694C257.617,298.588 262.902,300.78 268.41,300.78C273.922,300.78 279.207,298.588 283.101,294.694C286.999,290.795 289.187,285.514 289.187,280.003C289.171,274.499 286.98,269.222 283.085,265.327C279.195,261.436 273.917,259.241 268.409,259.225L268.41,259.226Z" style="fill-rule:nonzero;"/>
        <path d="M354.03,311.98C345.549,311.98 337.417,308.609 331.421,302.613C325.425,296.617 322.054,288.484 322.054,280.004C322.054,271.524 325.425,263.391 331.421,257.395C337.417,251.399 345.55,248.028 354.03,248.028C362.51,248.028 370.643,251.399 376.639,257.395C382.639,263.391 386.006,271.524 386.006,280.004C386.006,288.484 382.639,296.617 376.639,302.613C370.643,308.609 362.51,311.98 354.03,311.98ZM354.03,259.226C348.522,259.226 343.237,261.417 339.339,265.312C335.445,269.21 333.257,274.492 333.257,280.003C333.257,285.514 335.445,290.796 339.339,294.694C343.237,298.588 348.523,300.78 354.03,300.78C359.542,300.78 364.827,298.588 368.721,294.694C372.615,290.795 374.807,285.514 374.807,280.003C374.807,274.492 372.615,269.21 368.721,265.312C364.826,261.417 359.541,259.226 354.03,259.226Z" style="fill-rule:nonzero;"/>
        <path d="M439.6,311.98C431.12,311.98 422.983,308.609 416.987,302.613C410.991,296.617 407.624,288.484 407.624,280.004C407.624,271.524 410.991,263.391 416.987,257.395C422.983,251.399 431.12,248.028 439.6,248.028C448.081,248.028 456.213,251.399 462.209,257.395C468.205,263.391 471.572,271.524 471.572,280.004C471.572,288.484 468.205,296.617 462.209,302.613C456.213,308.609 448.08,311.98 439.6,311.98ZM439.6,259.226C434.088,259.226 428.803,261.417 424.909,265.312C421.011,269.21 418.823,274.492 418.823,280.003C418.823,285.514 421.011,290.796 424.909,294.694C428.804,298.588 434.089,300.78 439.6,300.78C445.108,300.78 450.393,298.588 454.288,294.694C458.186,290.795 460.374,285.514 460.374,280.003C460.358,274.499 458.167,269.222 454.272,265.327C450.382,261.436 445.104,259.241 439.6,259.225L439.6,259.226Z" style="fill-rule:nonzero;"/>
        <g id="h">
        </g>
        <g id="b">
        </g>
        <g id="a">
        </g>
        <g id="k">
        </g>
        <g id="e">
        </g>
        <g id="a1" serif:id="a">
        </g>
        <g id="f">
        </g>
        <g id="d">
        </g>
        <g id="j">
        </g>
        <g id="i">
        </g>
        <g id="c">
        </g>
        <g id="d1" serif:id="d">
        </g>
        <g id="d2" serif:id="d">
        </g>
        <g id="a2" serif:id="a">
        </g>
        <g id="f1" serif:id="f">
        </g>
        <g id="a3" serif:id="a">
        </g>
        <g id="h1" serif:id="h">
        </g>
        <g id="u">
        </g>
        <g id="a4" serif:id="a">
        </g>
        <g id="b1" serif:id="b">
        </g>
        <g id="g">
        </g>
        <g id="t">
        </g>
        <g id="s">
        </g>
        <g id="b2" serif:id="b">
        </g>
        <g id="c1" serif:id="c">
        </g>
        <g id="r">
        </g>
        <g id="e1" serif:id="e">
        </g>
        <g id="q">
        </g>
        <g id="a5" serif:id="a">
        </g>
        <g id="p">
        </g>
        <g id="c2" serif:id="c">
        </g>
        <g id="o">
        </g>
        <g id="n">
        </g>
        <g id="m">
        </g>
        <g id="b3" serif:id="b">
        </g>
        <g id="c3" serif:id="c">
        </g>
        <g id="l">
        </g>
        <g id="a6" serif:id="a">
        </g>
        <g id="g1" serif:id="g">
        </g>
        <g id="e2" serif:id="e">
        </g>
    </g>
</svg>
