<svg width="40" height="40" viewBox="0 0 40 40" fill="none" xmlns="http://www.w3.org/2000/svg">
<path fill-rule="evenodd" clip-rule="evenodd" d="M20.0005 0.833313C15.2525 0.835776 10.6603 2.51741 7.04482 5.57752C3.42939 8.63763 1.02655 12.8767 0.265948 17.5366C-0.49465 22.1966 0.436585 26.9737 2.89316 31.0136C5.34973 35.0535 9.17144 38.0929 13.6749 39.5883C14.6685 39.7727 15.0427 39.1569 15.0427 38.6333C15.0427 38.1097 15.0228 36.5917 15.0162 34.932C9.45237 36.1339 8.27668 32.5841 8.27668 32.5841C7.36925 30.279 6.05777 29.6731 6.05777 29.6731C4.2429 28.4416 6.19356 28.4646 6.19356 28.4646C8.20383 28.6062 9.2603 30.5161 9.2603 30.5161C11.0421 33.5556 13.9399 32.6763 15.0791 32.1626C15.258 30.8751 15.7779 29.9991 16.3509 29.5019C11.9064 29.0014 7.23677 27.2956 7.23677 19.6757C7.20922 17.6995 7.94674 15.7884 9.29673 14.3378C9.09139 13.8373 8.40584 11.8154 9.49211 9.06903C9.49211 9.06903 11.1712 8.53557 14.993 11.1074C18.2712 10.216 21.7298 10.216 25.0079 11.1074C28.8264 8.53557 30.5022 9.06903 30.5022 9.06903C31.5918 11.8088 30.9063 13.8307 30.7009 14.3378C32.0552 15.7886 32.7942 17.7031 32.7642 19.6823C32.7642 27.3187 28.0846 29.0014 23.6335 29.492C24.3489 30.1111 24.9881 31.3196 24.9881 33.1769C24.9881 35.8376 24.9649 37.978 24.9649 38.6333C24.9649 39.1635 25.3259 39.7826 26.3393 39.5883C30.8433 38.0927 34.6654 35.0528 37.1219 31.0122C39.5784 26.9716 40.5092 22.1938 39.7477 17.5334C38.9863 12.873 36.5822 8.6339 32.9656 5.57432C29.349 2.51474 24.7556 0.834215 20.0071 0.833313H20.0005Z" fill="#191717"/>
</svg>
