<?xml version="1.0" encoding="UTF-8" standalone="no"?>
<!DOCTYPE svg PUBLIC "-//W3C//DTD SVG 1.1//EN" "http://www.w3.org/Graphics/SVG/1.1/DTD/svg11.dtd">
<svg width="100%" height="100%" viewBox="0 0 566 497" version="1.1" xmlns="http://www.w3.org/2000/svg" xmlns:xlink="http://www.w3.org/1999/xlink" xml:space="preserve" xmlns:serif="http://www.serif.com/" style="fill-rule:evenodd;clip-rule:evenodd;stroke-linejoin:round;stroke-miterlimit:2;">
    <g transform="matrix(1,0,0,1,-65,-36)">
        <path d="M229.92,183.25L133.166,280L229.916,376.75C234.471,381.305 234.471,388.691 229.916,393.25C225.361,397.805 217.975,397.805 213.416,393.25L108.416,288.25C103.861,283.695 103.861,276.309 108.416,271.75L213.416,166.75C217.971,162.195 225.357,162.195 229.916,166.75C234.471,171.305 234.471,178.691 229.916,183.25L229.92,183.25ZM470.09,376.75L566.84,280L470.086,183.25C465.531,178.695 465.531,171.309 470.086,166.75C474.641,162.195 482.027,162.195 486.586,166.75L591.586,271.75C596.141,276.305 596.141,283.691 591.586,288.25L486.586,393.25C482.031,397.805 474.645,397.805 470.086,393.25C465.531,388.695 465.531,381.309 470.086,376.75L470.09,376.75ZM302.87,481.63C301.054,487.81 294.565,491.349 288.386,489.532C282.206,487.716 278.667,481.228 280.484,475.048L397.154,78.378C398.97,72.199 405.458,68.66 411.638,70.476C417.817,72.292 421.357,78.781 419.54,84.96L302.87,481.63Z" style="fill-rule:nonzero;"/>
        <g id="v">
        </g>
        <g id="b">
        </g>
        <g id="a">
        </g>
        <g id="m">
        </g>
        <g id="d">
        </g>
        <g id="a1" serif:id="a">
        </g>
        <g id="l">
        </g>
        <g id="k">
        </g>
        <g id="j">
        </g>
        <g id="i">
        </g>
        <g id="a2" serif:id="a">
        </g>
        <g id="h">
        </g>
        <g id="b1" serif:id="b">
        </g>
        <g id="g">
        </g>
        <g id="f">
        </g>
        <g id="c">
        </g>
        <g id="a3" serif:id="a">
        </g>
        <g id="u">
        </g>
        <g id="c1" serif:id="c">
        </g>
        <g id="b2" serif:id="b">
        </g>
        <g id="g1" serif:id="g">
        </g>
        <g id="f1" serif:id="f">
        </g>
        <g id="c2" serif:id="c">
        </g>
        <g id="a4" serif:id="a">
        </g>
        <g id="t">
        </g>
        <g id="b3" serif:id="b">
        </g>
        <g id="e">
        </g>
        <g id="s">
        </g>
        <g id="d1" serif:id="d">
        </g>
        <g id="r">
        </g>
        <g id="a5" serif:id="a">
        </g>
        <g id="q">
        </g>
        <g id="e1" serif:id="e">
        </g>
        <g id="c3" serif:id="c">
        </g>
        <g id="h1" serif:id="h">
        </g>
        <g id="p">
        </g>
        <g id="b4" serif:id="b">
        </g>
        <g id="e2" serif:id="e">
        </g>
        <g id="o">
        </g>
        <g id="a6" serif:id="a">
        </g>
        <g id="n">
        </g>
        <g id="d2" serif:id="d">
        </g>
    </g>
</svg>
