<?xml version="1.0" encoding="UTF-8" standalone="no"?>
<!DOCTYPE svg PUBLIC "-//W3C//DTD SVG 1.1//EN" "http://www.w3.org/Graphics/SVG/1.1/DTD/svg11.dtd">
<svg width="100%" height="100%" viewBox="0 0 411 565" version="1.1" xmlns="http://www.w3.org/2000/svg" xmlns:xlink="http://www.w3.org/1999/xlink" xml:space="preserve" xmlns:serif="http://www.serif.com/" style="fill-rule:evenodd;clip-rule:evenodd;stroke-linejoin:round;stroke-miterlimit:2;">
    <g transform="matrix(1,0,0,1,-134,0)">
        <path d="M309.91,28.004C266.664,31.488 223.457,67.137 221.512,112.348C219.477,149.477 245.496,178.914 256.731,212.309C263.962,230.778 254.794,255.196 234.165,259.348C225.329,259.977 214.407,260.059 209.009,268.59C200.021,280.117 208.634,298.988 223.239,299.727C242.622,297.723 260.962,315.047 258.954,334.684C255.22,369.356 227.251,395.723 222.681,430.375C214.478,470.336 242.966,508.816 278.579,524.008C291.224,528.301 306.388,536.16 319.454,529.293C333.704,521.77 331.407,498.273 315.981,493.641C292.184,490.575 266.872,475.383 261.497,450.547C258.888,420.926 280.95,397.492 290.536,371.094C303.876,341.43 301.384,302.856 276.294,280.055C290.771,266.426 298.95,246.586 298.634,226.739C299.119,190.2 272.982,161.684 262.81,128.282C255.346,106.559 270.463,84.887 289.197,75.063C299.545,66.919 315.154,70.821 324.193,60.872C335.443,49.329 326.021,27.665 309.916,28.013L309.91,28.004ZM390.086,28.004C373.977,27.656 364.57,49.324 375.82,60.863C384.859,70.812 400.453,66.91 410.8,75.054C429.534,84.878 444.663,106.55 437.198,128.273C427.026,161.679 400.889,190.191 401.374,226.73C401.062,246.578 409.226,266.418 423.702,280.046C398.612,302.851 396.136,341.425 409.472,371.085C419.058,397.487 441.12,420.917 438.511,450.538C433.136,475.378 407.827,490.565 384.027,493.632C368.597,498.261 366.304,521.761 380.554,529.284C393.62,536.155 408.784,528.292 421.429,523.999C457.042,508.808 485.531,470.327 477.327,430.366C472.757,395.714 444.78,369.346 441.042,334.675C439.035,315.038 457.386,297.714 476.769,299.718C491.371,298.98 499.984,280.109 490.999,268.581C485.601,260.05 474.679,259.971 465.843,259.339C445.214,255.186 436.034,230.769 443.265,212.3C454.495,178.905 480.531,149.468 478.495,112.339C476.55,67.132 433.331,31.484 390.085,27.995L390.086,28.004Z" style="fill-rule:nonzero;"/>
        <g id="k">
        </g>
        <g id="c">
        </g>
        <g id="a">
        </g>
        <g id="g">
        </g>
        <g id="b">
        </g>
        <g id="a1" serif:id="a">
        </g>
        <g id="f">
        </g>
        <g id="n">
        </g>
        <g id="m">
        </g>
        <g id="l">
        </g>
        <g id="g1" serif:id="g">
        </g>
        <g id="v">
        </g>
        <g id="j">
        </g>
        <g id="f1" serif:id="f">
        </g>
        <g id="k1" serif:id="k">
        </g>
        <g id="i">
        </g>
        <g id="c1" serif:id="c">
        </g>
        <g id="j1" serif:id="j">
        </g>
        <g id="h">
        </g>
        <g id="b1" serif:id="b">
        </g>
        <g id="a2" serif:id="a">
        </g>
        <g id="e">
        </g>
        <g id="h1" serif:id="h">
        </g>
        <g id="a3" serif:id="a">
        </g>
        <g id="e1" serif:id="e">
        </g>
        <g id="u">
        </g>
        <g id="c2" serif:id="c">
        </g>
        <g id="d">
        </g>
        <g id="t">
        </g>
        <g id="b2" serif:id="b">
        </g>
        <g id="i1" serif:id="i">
        </g>
        <g id="a4" serif:id="a">
        </g>
        <g id="s">
        </g>
        <g id="d1" serif:id="d">
        </g>
        <g id="r">
        </g>
        <g id="e2" serif:id="e">
        </g>
        <g id="q">
        </g>
        <g id="c3" serif:id="c">
        </g>
        <g id="d2" serif:id="d">
        </g>
        <g id="p">
        </g>
        <g id="a5" serif:id="a">
        </g>
        <g id="o">
        </g>
        <g id="b3" serif:id="b">
        </g>
    </g>
</svg>
