<?xml version="1.0" encoding="UTF-8" standalone="no"?>
<!DOCTYPE svg PUBLIC "-//W3C//DTD SVG 1.1//EN" "http://www.w3.org/Graphics/SVG/1.1/DTD/svg11.dtd">
<svg width="100%" height="100%" viewBox="0 0 367 357" version="1.1" xmlns="http://www.w3.org/2000/svg" xmlns:xlink="http://www.w3.org/1999/xlink" xml:space="preserve" xmlns:serif="http://www.serif.com/" style="fill-rule:evenodd;clip-rule:evenodd;stroke-linejoin:round;stroke-miterlimit:2;">
    <g transform="matrix(-1,-1.22465e-16,1.22465e-16,-1,529.731,454.847)">
        <path d="M350,424.2C270.492,424.2 205.8,359.512 205.8,280C205.8,200.484 270.491,135.8 350,135.8C429.509,135.8 494.2,200.484 494.2,280C494.2,359.516 429.509,424.2 350,424.2ZM350,147C276.664,147 217,206.664 217,280C217,353.336 276.664,413 350,413C423.336,413 483,353.336 483,280C483,206.664 423.336,147 350,147Z" style="fill:rgb(225,225,225);fill-opacity:0.84;fill-rule:nonzero;stroke:rgb(225,225,225);stroke-width:1px;"/>
        <path d="M387.02,284.6L306.754,284.6C303.656,284.6 301.152,282.092 301.152,278.998C301.152,275.909 303.656,273.397 306.754,273.397L387.02,273.401C390.118,273.401 392.622,275.909 392.622,279.002C392.622,282.092 390.118,284.6 387.02,284.6L387.02,284.6Z" style="fill:rgb(225,225,225);fill-opacity:0.84;fill-rule:nonzero;stroke:rgb(225,225,225);stroke-width:1px;"/>
        <path d="M359.73,320.9C358.488,320.9 357.238,320.486 356.195,319.638C353.793,317.685 353.441,314.158 355.394,311.759L382.195,278.904L358.418,248.123C356.524,245.678 356.973,242.159 359.426,240.268C361.879,238.369 365.395,238.838 367.277,241.276L393.769,275.577C395.359,277.639 395.32,280.522 393.676,282.542L364.063,318.842C362.965,320.194 361.352,320.901 359.731,320.901L359.73,320.9Z" style="fill:rgb(225,225,225);fill-opacity:0.84;fill-rule:nonzero;stroke:rgb(225,225,225);stroke-width:1px;"/>
        <g id="u">
        </g>
        <g id="c">
        </g>
        <g id="a">
        </g>
        <g id="j">
        </g>
        <g id="b">
        </g>
        <g id="a1" serif:id="a">
        </g>
        <g id="i">
        </g>
        <g id="h">
        </g>
        <g id="g">
        </g>
        <g id="f">
        </g>
        <g id="t">
        </g>
        <g id="e">
        </g>
        <g id="s">
        </g>
        <g id="r">
        </g>
        <g id="c1" serif:id="c">
        </g>
        <g id="d">
        </g>
        <g id="q">
        </g>
        <g id="b1" serif:id="b">
        </g>
        <g id="p">
        </g>
        <g id="a2" serif:id="a">
        </g>
        <g id="e1" serif:id="e">
        </g>
        <g id="d1" serif:id="d">
        </g>
        <g id="o">
        </g>
        <g id="n">
        </g>
        <g id="m">
        </g>
        <g id="c2" serif:id="c">
        </g>
        <g id="d2" serif:id="d">
        </g>
        <g id="l">
        </g>
        <g id="a3" serif:id="a">
        </g>
        <g id="k">
        </g>
        <g id="b2" serif:id="b">
        </g>
    </g>
</svg>
