<?xml version="1.0" encoding="UTF-8" standalone="no"?>
<!DOCTYPE svg PUBLIC "-//W3C//DTD SVG 1.1//EN" "http://www.w3.org/Graphics/SVG/1.1/DTD/svg11.dtd">
<svg width="100%" height="100%" viewBox="0 0 586 542" version="1.1" xmlns="http://www.w3.org/2000/svg" xmlns:xlink="http://www.w3.org/1999/xlink" xml:space="preserve" xmlns:serif="http://www.serif.com/" style="fill-rule:evenodd;clip-rule:evenodd;stroke-linejoin:round;stroke-miterlimit:2;">
    <g transform="matrix(1,0,0,1,-63,0)">
        <path d="M350,227.5C321.109,227.5 297.5,251.109 297.5,280C297.5,308.891 321.109,332.5 350,332.5C378.891,332.5 402.5,308.891 402.5,280C402.5,251.109 378.891,227.5 350,227.5Z" style="fill-rule:nonzero;"/>
        <path d="M105,280C105,296.195 113.141,311.148 126.242,323.766C139.344,336.387 157.551,347.149 179.648,356.153C223.843,374.157 283.798,385.001 349.998,385.001C416.198,385.001 476.158,374.157 520.348,356.153C542.446,347.149 560.653,336.387 573.754,323.766C586.856,311.145 594.996,296.192 594.996,280C594.996,263.805 586.855,248.836 573.754,236.215C560.652,223.594 542.445,212.832 520.348,203.828C476.157,185.824 416.198,175 349.998,175C283.798,175 223.838,185.828 179.648,203.828C157.55,212.832 139.347,223.594 126.242,236.215C113.14,248.836 105,263.805 105,280ZM122.516,280C122.516,269.617 127.602,259.25 138.411,248.844C149.216,238.438 165.606,228.477 186.263,220.067C227.572,203.239 285.728,192.516 350.003,192.516C414.273,192.516 472.433,203.235 513.743,220.067C534.399,228.481 550.79,238.438 561.595,248.844C572.4,259.25 577.49,269.617 577.49,280C577.49,290.383 572.404,300.73 561.595,311.137C550.79,321.543 534.4,331.52 513.743,339.934C472.434,356.762 414.278,367.465 350.003,367.465C285.733,367.465 227.573,356.762 186.263,339.934C165.607,331.52 149.216,321.543 138.411,311.137C127.606,300.731 122.516,290.379 122.516,280Z" style="fill-rule:nonzero;"/>
        <path d="M477.71,501C491.815,492.863 500.483,477.988 504.53,459.906C508.577,441.824 508.362,420.078 504.616,395.687C497.1,346.91 475.194,287.437 440.675,227.707C406.155,167.98 365.55,119.287 327.025,88.397C307.759,72.952 289.017,61.893 271.318,56.35C253.619,50.807 236.388,50.87 222.283,59.006C208.178,67.143 199.525,82.01 195.478,100.092C191.435,118.174 191.646,139.92 195.392,164.311C202.908,213.088 224.814,272.561 259.333,332.291C293.853,392.018 334.458,440.711 372.983,471.591C392.249,487.036 410.991,498.095 428.69,503.638C446.389,509.181 463.604,509.126 477.71,500.994L477.71,501ZM468.937,485.82C460.101,490.918 448.57,491.515 433.91,486.926C419.246,482.336 402.035,472.461 383.949,457.957C347.769,428.953 308.101,381.672 274.499,323.547C240.901,265.414 219.753,207.457 212.694,161.657C209.166,138.759 209.209,118.93 212.561,103.95C215.912,88.97 222.201,79.294 231.034,74.2C239.87,69.106 251.401,68.504 266.061,73.094C280.721,77.684 297.948,87.551 316.038,102.055C352.214,131.059 391.87,178.348 425.468,236.485C459.066,294.618 480.23,352.565 487.288,398.365C490.815,421.267 490.757,441.103 487.401,456.08C484.049,471.06 477.764,480.736 468.928,485.83L468.937,485.82Z" style="fill-rule:nonzero;"/>
        <path d="M222.29,501C208.185,492.863 199.517,477.988 195.47,459.902C191.423,441.82 191.63,420.086 195.384,395.699C202.9,346.918 224.814,287.429 259.333,227.699C293.853,167.972 334.458,119.279 372.983,88.389C392.249,72.944 410.983,61.901 428.682,56.358C446.381,50.815 463.612,50.877 477.721,59.014C491.826,67.151 500.479,82.018 504.526,100.104C508.569,118.186 508.366,139.92 504.612,164.307C497.096,213.084 475.19,272.557 440.671,332.287C406.151,392.014 365.538,440.717 327.011,471.607C307.745,487.052 289.007,498.099 271.312,503.638C253.613,509.181 236.398,509.126 222.289,500.994L222.29,501ZM231.063,485.82C239.899,490.914 251.422,491.531 266.083,486.941C280.747,482.351 297.966,472.461 316.056,457.957C352.236,428.953 391.904,381.672 425.506,323.537C459.104,265.404 480.248,207.457 487.303,161.657C490.831,138.755 490.796,118.911 487.444,103.93C484.092,88.95 477.807,79.274 468.971,74.18C460.135,69.086 448.604,68.485 433.944,73.075C419.28,77.664 402.046,87.548 383.96,102.052C347.78,131.056 308.136,178.329 274.54,236.462C240.942,294.595 219.774,352.552 212.72,398.352C209.193,421.254 209.243,441.102 212.599,456.086C215.951,471.066 222.247,480.727 231.079,485.824L231.063,485.82Z" style="fill-rule:nonzero;"/>
    </g>
</svg>
