<svg width="36" height="36" viewBox="0 0 36 36" fill="none" xmlns="http://www.w3.org/2000/svg">
<path d="M29.25 22.5L22.5 29.25" stroke="#445359" stroke-width="2" stroke-linejoin="round"/>
<path d="M31.5 24.75L24.75 31.5" stroke="#445359" stroke-width="2" stroke-linejoin="round"/>
<path d="M10.8 4.05L34.5 27.75C35.7 28.95 35.55 30.675 34.35 31.875L31.875 34.35C30.675 35.55 28.875 35.625 27.75 34.5L4.05002 10.8L0.825021 1.8C0.600021 1.125 1.12502 0.599998 1.72502 0.824998L10.8 4.05Z" stroke="#445359" stroke-width="2" stroke-linejoin="round"/>
<path d="M10.875 17.625L1.2 27.3C0.6 27.9 0.6 28.8 1.2 29.4L6.6 34.8C7.2 35.4 8.1 35.4 8.7 34.8L18.375 25.125M25.125 18.375L34.8 8.7C35.4 8.1 35.4 7.2 34.8 6.6L29.4 1.2C28.8 0.6 27.9 0.6 27.3 1.2L17.625 10.875L25.125 18.375Z" stroke="#445359" stroke-width="2" stroke-linejoin="round"/>
<path d="M27.75 6.75L24.75 3.75" stroke="#445359" stroke-width="2" stroke-linecap="round" stroke-linejoin="round"/>
<path d="M24 10.5L21 7.5" stroke="#445359" stroke-width="2" stroke-linecap="round" stroke-linejoin="round"/>
<path d="M6.75 27.75L3.75 24.75" stroke="#445359" stroke-width="2" stroke-linecap="round" stroke-linejoin="round"/>
<path d="M10.5 24L7.5 21" stroke="#445359" stroke-width="2" stroke-linecap="round" stroke-linejoin="round"/>
<path d="M10.8 4.05L4.05005 10.8" stroke="#445359" stroke-width="2" stroke-linejoin="round"/>
<path d="M1.875 4.65L4.65 1.875" stroke="#445359" stroke-width="2" stroke-linejoin="round"/>
</svg>
