<?xml version="1.0" encoding="UTF-8" standalone="no"?>
<!DOCTYPE svg PUBLIC "-//W3C//DTD SVG 1.1//EN" "http://www.w3.org/Graphics/SVG/1.1/DTD/svg11.dtd">
<svg width="100%" height="100%" viewBox="0 0 583 579" version="1.1" xmlns="http://www.w3.org/2000/svg" xmlns:xlink="http://www.w3.org/1999/xlink" xml:space="preserve" xmlns:serif="http://www.serif.com/" style="fill-rule:evenodd;clip-rule:evenodd;stroke-linejoin:round;stroke-miterlimit:2;">
    <g transform="matrix(1,0,0,1,-58,0)">
        <path d="M192.66,381.46C189.047,381.46 185.449,379.999 182.82,377.12L101.48,287.968C96.843,282.882 96.843,275.105 101.48,270.027L182.82,180.871C187.777,175.445 196.199,175.059 201.629,180.008C207.063,184.965 207.45,193.387 202.492,198.813L129.336,278.993L202.5,359.177C207.457,364.603 207.071,373.025 201.637,377.982C199.079,380.306 195.864,381.462 192.661,381.462L192.66,381.46Z" style="fill-rule:nonzero;"/>
        <path d="M507.36,381.46C504.157,381.46 500.95,380.312 498.395,377.983C492.962,373.026 492.575,364.612 497.532,359.178L570.692,278.998L497.532,198.807C492.575,193.374 492.962,184.952 498.395,180.002C503.829,175.052 512.243,175.44 517.2,180.866L598.54,270.022C603.177,275.108 603.177,282.885 598.54,287.963L517.2,377.115C514.571,379.994 510.97,381.458 507.36,381.458L507.36,381.46Z" style="fill-rule:nonzero;"/>
        <path d="M427.13,31.434C421.165,29.223 414.942,28.102 408.638,28.102C386.255,28.102 366.044,42.348 358.357,63.551C358.357,63.551 245.007,376.391 244.927,376.711C244.888,376.836 237.091,517.731 237.091,517.731C236.642,523.669 240.22,529.172 245.837,531.188C247.322,531.727 248.849,531.977 250.361,531.977C254.579,531.977 258.654,529.977 261.201,526.415C261.201,526.415 345.295,413.805 345.314,413.755C345.47,413.415 458.934,100.535 458.934,100.535C469.063,72.664 454.797,41.668 427.137,31.426L427.13,31.434ZM325.26,391.264L274.647,372.526L372.245,103.316L422.835,122.066L325.26,391.264ZM383.401,72.554C387.292,61.824 397.436,54.616 408.639,54.616C411.764,54.616 414.866,55.175 417.85,56.284C431.873,61.475 439.069,77.284 433.893,91.538L431.87,97.12L381.292,78.378L383.401,72.554ZM263.161,482.624L270.431,399.253L311.477,414.452L263.161,482.624Z" style="fill-rule:nonzero;"/>
        <g id="y">
        </g>
        <g id="b">
        </g>
        <g id="a">
        </g>
        <g id="e">
        </g>
        <g id="d">
        </g>
        <g id="a1" serif:id="a">
        </g>
        <g id="g">
        </g>
        <g id="f">
        </g>
        <g id="j">
        </g>
        <g id="i">
        </g>
        <g id="e1" serif:id="e">
        </g>
        <g id="f1" serif:id="f">
        </g>
        <g id="b1" serif:id="b">
        </g>
        <g id="x">
        </g>
        <g id="a2" serif:id="a">
        </g>
        <g id="w">
        </g>
        <g id="e2" serif:id="e">
        </g>
        <g id="v">
        </g>
        <g id="c">
        </g>
        <g id="g1" serif:id="g">
        </g>
        <g id="b2" serif:id="b">
        </g>
        <g id="u">
        </g>
        <g id="t">
        </g>
        <g id="h">
        </g>
        <g id="a3" serif:id="a">
        </g>
        <g id="s">
        </g>
        <g id="r">
        </g>
        <g id="b3" serif:id="b">
        </g>
        <g id="c1" serif:id="c">
        </g>
        <g id="q">
        </g>
        <g id="d1" serif:id="d">
        </g>
        <g id="p">
        </g>
        <g id="a4" serif:id="a">
        </g>
        <g id="o">
        </g>
        <g id="c2" serif:id="c">
        </g>
        <g id="h1" serif:id="h">
        </g>
        <g id="n">
        </g>
        <g id="m">
        </g>
        <g id="b4" serif:id="b">
        </g>
        <g id="c3" serif:id="c">
        </g>
        <g id="l">
        </g>
        <g id="a5" serif:id="a">
        </g>
        <g id="k">
        </g>
        <g id="d2" serif:id="d">
        </g>
    </g>
</svg>
