<svg width="42" height="38" viewBox="0 0 42 38" fill="none" xmlns="http://www.w3.org/2000/svg">
<path d="M13.7308 7.12499V3.16666C13.7308 1.82082 14.7808 0.791656 16.1539 0.791656H25.8462C27.2193 0.791656 28.2693 1.82082 28.2693 3.16666V7.12499" stroke="#445359" stroke-width="2" stroke-linejoin="round"/>
<path d="M39.5769 21.7708V34.0416C39.5769 35.7833 38.1231 37.2083 36.3462 37.2083H5.65386C3.87694 37.2083 2.4231 35.7833 2.4231 34.0416V21.7708" stroke="#445359" stroke-width="2" stroke-linecap="round" stroke-linejoin="round"/>
<path d="M25.0385 22.9583H36.3462C39.0116 22.9583 41.1924 20.8208 41.1924 18.2083V13.3792V8.70833C41.1924 7.8375 40.4654 7.125 39.577 7.125H2.42312C1.53466 7.125 0.807739 7.8375 0.807739 8.70833V13.3792V18.2083C0.807739 20.8208 2.98851 22.9583 5.65389 22.9583H16.9616" stroke="#445359" stroke-width="2" stroke-linecap="round" stroke-linejoin="round"/>
<path d="M21 27.7083C18.7385 27.7083 16.9615 25.9667 16.9615 23.75V21.375C16.9615 20.5042 17.6885 19.7917 18.5769 19.7917H23.4231C24.3115 19.7917 25.0385 20.5042 25.0385 21.375V23.75C25.0385 25.9667 23.2615 27.7083 21 27.7083Z" stroke="#445359" stroke-width="2" stroke-linejoin="round"/>
<path d="M21 22.9583V24.5416" stroke="#445359" stroke-width="2" stroke-linecap="round" stroke-linejoin="round"/>
<path d="M16.9615 17.4167V7.125H25.0385V17.4167" stroke="#445359" stroke-width="2" stroke-linecap="round" stroke-linejoin="round"/>
<path d="M25.0385 29.2917V37.2083H16.9615V29.2917" stroke="#445359" stroke-width="2" stroke-linecap="round" stroke-linejoin="round"/>
</svg>
